<?xml version="1.0" encoding="UTF-8" standalone="no"?>
<!-- Created with Inkscape (http://www.inkscape.org/) -->

<svg
   width="127.6397mm"
   height="118.56808mm"
   viewBox="0 0 127.6397 118.56808"
   version="1.1"
   id="svg1"
   xml:space="preserve"
   xmlns="http://www.w3.org/2000/svg"
   xmlns:svg="http://www.w3.org/2000/svg"><defs
     id="defs1" /><g
     id="layer1"
     transform="translate(-32.394297,-53.452914)"><ellipse
       style="fill:#16362a;fill-opacity:1;stroke-width:0.266502"
       id="path2"
       cx="96.214157"
       cy="112.73695"
       rx="63.819859"
       ry="59.284039" /><path
       style="fill:#ffffff;stroke-width:1.34739"
       d="m 49.19518,134.88341 c -4.157896,-2.37354 -8.660389,-2.99355 -5.764598,-8.27127 3.915555,-7.1363 3.983636,-7.47048 0.959852,-12.96768 -2.912966,-5.29575 -3.390772,-7.19965 -3.390398,-13.50959 2.83e-4,-4.751499 0.08724,-5.510339 0.94271,-8.225473 2.927253,-9.290856 9.668114,-14.601096 16.935482,-13.341266 4.93429,0.855397 8.680274,3.432119 12.306571,8.465218 2.458373,3.412108 4.788067,5.380613 7.858794,6.640371 1.849655,0.758812 2.514157,0.823984 7.138293,0.700167 8.932034,-0.239182 14.159614,-0.203007 18.577264,0.128594 8.17952,0.613911 12.43698,-1.311521 16.39699,-7.415504 2.00148,-3.085101 4.15901,-5.150544 7.03095,-6.730895 6.17015,-3.39525 12.60395,-2.322064 17.311,2.887549 3.89771,4.313827 5.90743,10.101865 5.92992,17.078219 0.0169,5.27724 -0.75066,8.22071 -3.40896,13.07084 -2.0673,3.77182 -2.64631,5.71011 -2.20797,7.39124 0.16718,0.64114 1.16465,2.75215 2.21662,4.6911 2.94632,5.43058 1.04779,5.52726 -0.97068,6.90003 -3.79823,2.58319 -18.18729,8.45236 -22.63093,9.97296 -1.98972,0.68086 -8.03079,2.10483 -8.62087,2.26382 -1.82952,0.49293 -4.83342,1.19404 -6.34058,1.42385 -2.04037,0.31111 -7.94469,0.8474 -15.22459,1.05204 -2.155435,0.0606 -16.911006,-1.64012 -19.483357,-2.37806 -4.162109,-1.194 -12.826833,-3.84884 -14.867797,-4.74533 -3.68823,-1.62005 -6.12474,-2.47272 -10.693716,-5.08093 z m 9.793227,-16.37556 c 0.934766,-0.27464 2.381001,-0.88253 3.213855,-1.35084 1.891252,-1.06342 5.019575,-4.51651 6.106343,-6.74029 0.806864,-1.651 0.780552,-1.63351 -1.406178,0.93473 -3.396099,3.98861 -8.344843,6.81695 -12.163014,6.95146 -1.404727,0.0494 -1.446352,0.0771 -0.509872,0.33931 1.589779,0.44494 2.914479,0.40753 4.758866,-0.13439 z m 80.022493,-0.10531 c 0.0779,-0.0739 -0.38712,-0.13425 -1.03332,-0.13425 -4.42467,0 -10.74301,-3.94358 -14.37675,-8.97324 l -0.94541,-1.30859 0.79867,1.66528 c 0.43926,0.91588 1.73579,2.72366 2.88117,4.01727 3.13826,3.54445 7.39495,5.50023 11.00437,5.05607 0.84128,-0.10359 1.59336,-0.24866 1.67127,-0.32251 z M 59.33835,115.61483 C 63.648291,113.84114 67.508526,108.164 68.402365,102.2846 69.54638,94.759721 66.084554,86.412639 60.537467,83.320825 54.52968,79.972237 47.034489,82.584934 44.03695,89.07262 c -3.57929,7.74682 -2.487191,17.1171 2.661338,22.83444 1.642363,1.82382 4.047599,3.48354 6.001613,4.14141 1.669445,0.56206 4.700037,0.36409 6.638449,-0.43364 z M 58.293507,93.663151 c -0.943057,-0.358648 -3.23751,-1.598708 -5.098779,-2.755691 -1.861268,-1.156983 -3.728292,-2.215374 -4.148952,-2.351995 -1.183032,-0.384209 -0.928501,-0.802674 1.177598,-1.936058 3.326082,-1.789916 7.660471,-1.364187 10.900496,1.070614 1.742097,1.309147 3.086247,3.423978 3.361333,5.288605 l 0.200805,1.361007 -2.338932,-0.01272 c -1.313458,-0.0071 -3.090692,-0.298095 -4.053569,-0.664274 z m 83.543173,21.521469 c 7.3638,-3.70814 10.60282,-14.59668 7.17037,-24.10452 -1.24227,-3.441078 -4.48473,-7.083538 -7.41845,-8.333645 -2.76948,-1.180116 -6.34982,-1.175239 -9.1778,0.01272 -3.06297,1.286438 -6.1484,4.832637 -7.62997,8.769418 -1.88129,4.998931 -1.81645,10.406787 0.18164,15.147757 1.83025,4.34276 5.24064,7.95421 8.67057,9.18172 2.23883,0.80125 5.86682,0.50353 8.20364,-0.67322 z M 127.14207,93.481862 c 0,-1.667682 2.09326,-4.853452 4.02205,-6.121195 3.23938,-2.129173 7.86606,-2.430901 10.89113,-0.710257 1.24207,0.706485 2.02829,1.70708 1.34135,1.70708 -0.26659,0 -2.06009,1.024489 -3.98556,2.276645 -4.46761,2.905354 -6.57794,3.705514 -9.7728,3.705514 -2.37627,0 -2.49617,-0.04127 -2.49617,-0.857787 z M 85.899579,110.33493 c -1.413424,-2.21455 -2.509249,-3.07054 -3.432175,-2.68099 -0.632216,0.26683 -0.715736,2.04001 -0.126546,2.68802 0.657026,0.72267 1.631611,0.54402 1.631611,-0.29912 0,-1.11703 0.967402,-0.9087 1.624042,0.34975 0.314964,0.60364 0.634503,1.0295 0.71007,0.94638 0.07555,-0.0831 -0.107526,-0.53494 -0.406951,-1.00404 z m 22.036531,-0.15854 0.60689,1.01879 0.80155,-0.82828 c 0.90254,-0.93261 1.02915,-1.89419 0.33305,-2.52962 -0.68783,-0.62789 -2.01778,0.05 -3.06721,1.56333 -1.10254,1.58995 -1.16284,2.16316 -0.0823,0.7813 l 0.80102,-1.02429 z"
       id="path1" /></g></svg>
