<?xml version="1.0" encoding="UTF-8" standalone="no"?>
<!-- Created with Inkscape (http://www.inkscape.org/) -->

<svg
   width="127.6397mm"
   height="118.56808mm"
   viewBox="0 0 127.6397 118.56808"
   version="1.1"
   id="svg1"
   xml:space="preserve"
   xmlns="http://www.w3.org/2000/svg"
   xmlns:svg="http://www.w3.org/2000/svg"><defs
     id="defs1" /><g
     id="layer1"
     transform="translate(-32.394297,-53.452914)"><ellipse
       style="fill:#172336;fill-opacity:1;stroke-width:0.266502"
       id="path2"
       cx="96.214157"
       cy="112.73695"
       rx="63.819859"
       ry="59.284039" /><path
       style="fill:#ffffff;stroke-width:1.25647"
       d="m 47.351414,139.19731 c -2.329681,-2.51139 -2.816002,-3.23694 -3.249057,-4.84721 -1.150093,-4.27646 -0.169054,-8.83316 3.209139,-14.9057 3.690165,-6.63329 3.714821,-6.96638 0.895081,-12.09263 -2.7164,-4.93839 -3.161963,-6.71382 -3.161615,-12.597966 2.64e-4,-4.430867 0.08135,-5.1385 0.879097,-7.670418 2.729722,-8.663911 9.015711,-13.615817 15.792679,-12.441 4.601325,0.797675 8.094531,3.20052 11.476126,7.893987 2.292483,3.18186 4.46497,5.01753 7.328485,6.19228 1.72484,0.707608 2.344502,0.768382 6.656602,0.65292 8.329303,-0.223042 13.204129,-0.189308 17.323669,0.119917 7.62757,0.572484 11.59774,-1.22302 15.29053,-6.915108 1.86642,-2.876919 3.87836,-4.802986 6.5565,-6.276696 5.75379,-3.166139 11.75344,-2.165371 16.14286,2.692698 3.63469,4.022731 5.5088,9.420194 5.52977,15.925784 0.0158,4.921137 -0.70001,7.665982 -3.17893,12.188822 -1.92779,3.5173 -2.46773,5.32479 -2.05897,6.89248 0.1559,0.59788 1.08606,2.56644 2.06704,4.37455 2.7475,5.06412 3.74622,7.93665 3.90636,11.23539 0.20117,4.14376 -0.58027,6.16483 -3.69613,9.55961 -1.32607,1.44477 -3.54006,2.64189 -3.92738,3.05993 -0.60303,0.65085 -3.83386,2.25423 -5.67551,3.06735 -1.7607,0.77738 -16.79154,4.66227 -21.75672,4.90932 -20.382905,1.01421 -21.96768,1.43941 -39.871096,-1.187 -3.995039,-0.58607 -14.897672,-3.33188 -16.588224,-4.00497 -1.226887,-0.48847 -6.654233,-2.33782 -9.890306,-5.82634 z m 12.407681,-8.60406 c 12.438247,-5.38688 20.219016,-7.56826 30.33977,-8.50594 12.827795,-1.1885 25.334935,1.10558 41.139425,7.54583 10.17443,4.14603 9.98929,4.08403 11.6642,3.907 1.15099,-0.12163 1.76285,-0.40891 2.39043,-1.12228 0.7345,-0.83492 0.75403,-0.90871 0.15112,-0.57118 -1.1537,0.64588 -2.35668,0.43834 -5.01329,-0.86489 -9.88828,-4.8508 -22.60599,-9.31843 -30.58868,-10.74555 -10.175232,-1.8191 -20.921332,-1.52185 -30.888809,0.85444 -6.39144,1.52375 -12.235603,3.66729 -21.911401,8.0368 -6.795215,3.06864 -8.167197,3.44699 -9.616239,2.65189 -0.915122,-0.50215 -0.956299,-0.49705 -0.673765,0.0835 0.570949,1.17343 2.235855,1.79702 4.448763,1.66628 1.673337,-0.0988 3.281009,-0.65038 8.558476,-2.936 z m 2.060387,-18.70627 c 0.871688,-0.25611 2.220332,-0.82298 2.996985,-1.25968 1.763631,-0.99166 4.680855,-4.21174 5.694288,-6.28546 0.752417,-1.53959 0.727881,-1.52328 -1.311289,0.87165 -3.166931,3.71946 -7.781735,6.35695 -11.342257,6.48238 -1.309936,0.0461 -1.348752,0.0719 -0.475466,0.31641 1.482501,0.41492 2.717811,0.38003 4.437739,-0.12532 z m 74.622588,-0.0982 c 0.0726,-0.0689 -0.36099,-0.12519 -0.96359,-0.12519 -4.12609,0 -10.01807,-3.67747 -13.40661,-8.36773 l -0.88161,-1.22029 0.74477,1.55291 c 0.40962,0.85408 1.61866,2.53987 2.68675,3.74619 2.92649,3.30527 6.89594,5.12907 10.2618,4.71488 0.78451,-0.0966 1.48584,-0.23188 1.55849,-0.30074 z m -74.296259,-2.5996 c 4.019107,-1.654 7.618854,-6.94805 8.452377,-12.430704 1.066818,-7.017105 -2.161405,-14.800928 -7.334176,-17.684107 -5.602383,-3.122626 -12.5918,-0.686233 -15.387066,5.363665 -3.33776,7.224067 -2.319356,15.962046 2.481752,21.293576 1.531536,1.70075 3.774468,3.24847 5.596625,3.86195 1.556791,0.52413 4.38288,0.33952 6.190488,-0.40438 z M 61.171474,88.718797 c -0.87942,-0.334446 -3.019044,-1.490827 -4.754715,-2.569737 -1.73567,-1.07891 -3.476707,-2.065881 -3.868981,-2.193283 -1.103202,-0.358283 -0.865846,-0.74851 1.098134,-1.805413 3.101638,-1.669133 7.143544,-1.272132 10.164933,0.998369 1.62454,1.220806 2.877987,3.192929 3.134511,4.931731 l 0.187254,1.269167 -2.181101,-0.01186 c -1.224826,-0.0066 -2.882133,-0.27798 -3.780035,-0.619449 z M 139.07717,108.788 c 6.86689,-3.45791 9.88734,-13.611699 6.68651,-22.47795 -1.15844,-3.208875 -4.1821,-6.605542 -6.91785,-7.771292 -2.5826,-1.100482 -5.92134,-1.095935 -8.55848,0.01186 -2.85629,1.19963 -5.73351,4.506532 -7.11511,8.17766 -1.75434,4.661604 -1.69387,9.704544 0.16939,14.125592 1.70674,4.04971 4.887,7.41746 8.08548,8.56214 2.08775,0.74718 5.47093,0.46955 7.65006,-0.62779 z M 125.37415,88.549742 c 0,-1.555147 1.95201,-4.525942 3.75064,-5.708138 3.02079,-1.985497 7.33526,-2.266865 10.1562,-0.662329 1.15826,0.658811 1.89142,1.591886 1.25084,1.591886 -0.2486,0 -1.92108,0.955357 -3.71662,2.123018 -4.16614,2.709301 -6.13406,3.455466 -9.11333,3.455466 -2.21592,0 -2.32773,-0.03848 -2.32773,-0.799903 z M 86.914694,104.26557 c -1.318046,-2.06511 -2.339925,-2.86334 -3.200572,-2.50008 -0.589554,0.24883 -0.667439,1.90235 -0.118007,2.50663 0.61269,0.67391 1.52151,0.50731 1.52151,-0.27893 0,-1.04165 0.902122,-0.84738 1.514452,0.32615 0.293711,0.5629 0.591687,0.96003 0.662155,0.88252 0.07045,-0.0775 -0.10027,-0.49885 -0.37949,-0.93629 z m 20.549506,-0.14784 0.56594,0.95004 0.74746,-0.77239 c 0.84164,-0.86968 0.9597,-1.76637 0.31058,-2.35892 -0.64142,-0.58552 -1.88162,0.0466 -2.86024,1.45784 -1.02814,1.48266 -1.08437,2.01719 -0.0767,0.72857 l 0.74697,-0.95517 z"
       id="path1" /></g></svg>
